<svg width="30" height="30" viewBox="0 0 30 30" fill="none" xmlns="http://www.w3.org/2000/svg">
<path d="M23.3333 25H13.3333V18.3333H11.6667V25H6.66667V18.3333H5V25C5 25.442 5.17559 25.8659 5.48816 26.1785C5.80072 26.4911 6.22464 26.6667 6.66667 26.6667H23.3333C23.7754 26.6667 24.1993 26.4911 24.5118 26.1785C24.8244 25.8659 25 25.442 25 25V18.3333H23.3333V25Z" fill="#828282"/>
<path d="M28.1583 11.0583L24.7583 4.25833C24.6203 3.98066 24.4076 3.74698 24.1441 3.58357C23.8806 3.42016 23.5767 3.3335 23.2666 3.33333H6.73331C6.42324 3.3335 6.11936 3.42016 5.85584 3.58357C5.59233 3.74698 5.37962 3.98066 5.24164 4.25833L1.84164 11.0583C1.72555 11.2912 1.66562 11.5481 1.66664 11.8083V14.375C1.66588 14.7644 1.8015 15.1418 2.04997 15.4417C2.41719 15.8626 2.87072 16.1996 3.37975 16.4296C3.88878 16.6597 4.44137 16.7775 4.99997 16.775C5.91145 16.7764 6.79512 16.4612 7.49997 15.8833C8.20481 16.4616 9.0883 16.7776 9.99997 16.7776C10.9116 16.7776 11.7951 16.4616 12.5 15.8833C13.2048 16.4616 14.0883 16.7776 15 16.7776C15.9116 16.7776 16.7951 16.4616 17.5 15.8833C18.2048 16.4616 19.0883 16.7776 20 16.7776C20.9116 16.7776 21.7951 16.4616 22.5 15.8833C23.2868 16.5294 24.2934 16.8452 25.3082 16.7643C26.323 16.6835 27.267 16.2124 27.9416 15.45C28.1931 15.1513 28.3317 14.7738 28.3333 14.3833V11.8083C28.3343 11.5481 28.2744 11.2912 28.1583 11.0583ZM25 15.1083C24.644 15.1075 24.2935 15.0216 23.9774 14.8578C23.6614 14.694 23.3892 14.457 23.1833 14.1667L22.5 13.2333L21.825 14.1667C21.6152 14.4526 21.3411 14.6851 21.0247 14.8453C20.7084 15.0056 20.3588 15.0891 20.0041 15.0891C19.6495 15.0891 19.2999 15.0056 18.9836 14.8453C18.6672 14.6851 18.3931 14.4526 18.1833 14.1667L17.5 13.2333L16.825 14.1667C16.6152 14.4526 16.3411 14.6851 16.0247 14.8453C15.7084 15.0056 15.3588 15.0891 15.0041 15.0891C14.6495 15.0891 14.2999 15.0056 13.9836 14.8453C13.6672 14.6851 13.3931 14.4526 13.1833 14.1667L12.5 13.2333L11.825 14.1667C11.6152 14.4526 11.3411 14.6851 11.0247 14.8453C10.7084 15.0056 10.3588 15.0891 10.0041 15.0891C9.64953 15.0891 9.2999 15.0056 8.98356 14.8453C8.66723 14.6851 8.39307 14.4526 8.18331 14.1667L7.49997 13.2333L6.81664 14.1667C6.61078 14.457 6.3385 14.694 6.0225 14.8578C5.70649 15.0216 5.35591 15.1075 4.99997 15.1083C4.68592 15.1122 4.37469 15.0487 4.08721 14.9222C3.79973 14.7957 3.54267 14.6091 3.33331 14.375V11.8083L6.73331 5H23.2666L26.6666 11.8V14.35C26.4585 14.5874 26.2023 14.7778 25.9149 14.9086C25.6276 15.0393 25.3157 15.1074 25 15.1083Z" fill="#828282"/>
</svg>
